<mxfile host="app.diagrams.net" agent="Mozilla/5.0 (Windows NT 10.0; Win64; x64) AppleWebKit/537.36 (KHTML, like Gecko) Chrome/134.0.0.0 Safari/537.36 Edg/134.0.0.0" version="26.1.1">
  <diagram name="Page-1" id="VVJNKFtktYk6OqbyFMbC">
    <mxGraphModel dx="2404" dy="853" grid="1" gridSize="10" guides="1" tooltips="1" connect="1" arrows="1" fold="1" page="1" pageScale="1" pageWidth="850" pageHeight="1100" math="0" shadow="0">
      <root>
        <mxCell id="0" />
        <mxCell id="1" parent="0" />
        <mxCell id="rWiJI9U1eraYKBoOzTNI-1" value="User Uploads a File&lt;div&gt;to &lt;b&gt;Google Cloud Storage Bucket&lt;/b&gt;&lt;/div&gt;" style="whiteSpace=wrap;html=1;aspect=fixed;" vertex="1" parent="1">
          <mxGeometry x="-240" y="110" width="110" height="110" as="geometry" />
        </mxCell>
        <mxCell id="rWiJI9U1eraYKBoOzTNI-11" value="" style="edgeStyle=orthogonalEdgeStyle;rounded=0;orthogonalLoop=1;jettySize=auto;html=1;" edge="1" parent="1">
          <mxGeometry relative="1" as="geometry">
            <mxPoint x="50" y="164.5" as="sourcePoint" />
            <mxPoint x="130" y="165" as="targetPoint" />
          </mxGeometry>
        </mxCell>
        <mxCell id="rWiJI9U1eraYKBoOzTNI-8" value="&lt;b&gt;Google Cloud Storage&lt;span style=&quot;background-color: transparent; color: light-dark(rgb(0, 0, 0), rgb(255, 255, 255));&quot;&gt;&amp;nbsp;Bucket&amp;nbsp;&lt;/span&gt;&lt;/b&gt;&lt;div&gt;receives and&lt;/div&gt;&lt;div&gt;stores the file&lt;/div&gt;" style="ellipse;shape=cloud;whiteSpace=wrap;html=1;" vertex="1" parent="1">
          <mxGeometry x="-83" y="80" width="154" height="170" as="geometry" />
        </mxCell>
        <mxCell id="rWiJI9U1eraYKBoOzTNI-10" value="The file is automatically moved and stored in correct folder" style="whiteSpace=wrap;html=1;" vertex="1" parent="1">
          <mxGeometry x="710" y="111.25" width="110" height="110" as="geometry" />
        </mxCell>
        <mxCell id="rWiJI9U1eraYKBoOzTNI-14" value="" style="edgeStyle=orthogonalEdgeStyle;rounded=0;orthogonalLoop=1;jettySize=auto;html=1;" edge="1" parent="1">
          <mxGeometry relative="1" as="geometry">
            <mxPoint x="-130" y="164.5" as="sourcePoint" />
            <mxPoint x="-70" y="165" as="targetPoint" />
          </mxGeometry>
        </mxCell>
        <mxCell id="rWiJI9U1eraYKBoOzTNI-15" value="Python Script Executes" style="rhombus;whiteSpace=wrap;html=1;" vertex="1" parent="1">
          <mxGeometry x="520" y="103.75" width="115" height="125" as="geometry" />
        </mxCell>
        <mxCell id="rWiJI9U1eraYKBoOzTNI-17" value="&lt;b&gt;Google Cloud Run&lt;/b&gt;&lt;div&gt;processes&lt;/div&gt;&lt;div&gt;python script&lt;/div&gt;" style="ellipse;shape=cloud;whiteSpace=wrap;html=1;" vertex="1" parent="1">
          <mxGeometry x="320" y="85" width="150" height="160" as="geometry" />
        </mxCell>
        <mxCell id="rWiJI9U1eraYKBoOzTNI-26" value="" style="edgeStyle=orthogonalEdgeStyle;rounded=0;orthogonalLoop=1;jettySize=auto;html=1;" edge="1" parent="1" source="rWiJI9U1eraYKBoOzTNI-19">
          <mxGeometry relative="1" as="geometry">
            <mxPoint x="330" y="165" as="targetPoint" />
          </mxGeometry>
        </mxCell>
        <mxCell id="rWiJI9U1eraYKBoOzTNI-19" value="&lt;b&gt;EventArc Triggers&lt;/b&gt;&lt;div&gt;a file upload&lt;/div&gt;" style="rhombus;whiteSpace=wrap;html=1;" vertex="1" parent="1">
          <mxGeometry x="130" y="103.75" width="130" height="122.5" as="geometry" />
        </mxCell>
        <mxCell id="rWiJI9U1eraYKBoOzTNI-21" value="" style="endArrow=classic;html=1;rounded=0;exitX=0.5;exitY=0;exitDx=0;exitDy=0;" edge="1" parent="1">
          <mxGeometry width="50" height="50" relative="1" as="geometry">
            <mxPoint x="450" y="164.5" as="sourcePoint" />
            <mxPoint x="520" y="164.75" as="targetPoint" />
          </mxGeometry>
        </mxCell>
        <mxCell id="rWiJI9U1eraYKBoOzTNI-27" value="" style="endArrow=classic;html=1;rounded=0;exitX=0.5;exitY=0;exitDx=0;exitDy=0;" edge="1" parent="1">
          <mxGeometry width="50" height="50" relative="1" as="geometry">
            <mxPoint x="635" y="165.75" as="sourcePoint" />
            <mxPoint x="705" y="166" as="targetPoint" />
          </mxGeometry>
        </mxCell>
      </root>
    </mxGraphModel>
  </diagram>
</mxfile>
